<svg width="100" height="30" viewBox="0 0 100 30" fill="none" xmlns="http://www.w3.org/2000/svg">
<rect x="74" width="26" height="30" rx="4" fill="#F9F9F9"/>
<path fill-rule="evenodd" clip-rule="evenodd" d="M89.5 12C89.5 13.3807 88.3807 14.5 87 14.5C85.6193 14.5 84.5 13.3807 84.5 12C84.5 10.6193 85.6193 9.5 87 9.5C88.3807 9.5 89.5 10.6193 89.5 12ZM91 12C91 14.2091 89.2091 16 87 16C84.7909 16 83 14.2091 83 12C83 9.79086 84.7909 8 87 8C89.2091 8 91 9.79086 91 12ZM85 17.25C82.9289 17.25 81.25 18.9289 81.25 21V22H82.75V21C82.75 19.7574 83.7574 18.75 85 18.75H89C90.2426 18.75 91.25 19.7574 91.25 21V22H92.75V21C92.75 18.9289 91.0711 17.25 89 17.25H85Z" fill="black"/>
</svg>
