<svg width="38" height="38" viewBox="0 0 38 38" fill="none" xmlns="http://www.w3.org/2000/svg">
<path d="M0 19C0 8.50659 8.50659 0 19 0C29.4934 0 38 8.50659 38 19C38 29.4934 29.4934 38 19 38C8.50659 38 0 29.4934 0 19Z" fill="black"/>
<path d="M9.52964 23.4369L9.53486 23.3804L9.52728 23.3241C9.50927 23.1906 9.5 23.0533 9.5 22.9129V14.1596C9.5 12.6248 10.572 11.5 11.756 11.5H27.244C28.4268 11.5 29.5 12.6246 29.5 14.1597V22.9129C29.5 23.0523 29.4904 23.1901 29.4725 23.3255L29.4653 23.38L29.4701 23.4349C29.4895 23.6545 29.5 23.8755 29.5 24.0978C29.5 25.3024 29.279 26.0406 28.9363 26.506C28.6035 26.958 28.1005 27.227 27.3557 27.3696C26.5983 27.5146 25.6498 27.5178 24.49 27.4785C24.1735 27.4677 23.8418 27.4539 23.4967 27.4395C22.5971 27.4019 21.6057 27.3605 20.55 27.3605C19.5444 27.3605 18.5335 27.3981 17.5645 27.4342C17.1278 27.4504 16.6997 27.4664 16.2843 27.4784C14.9314 27.5176 13.7068 27.5159 12.6721 27.3659C11.6336 27.2153 10.8519 26.9239 10.3304 26.437C9.8262 25.9663 9.5 25.2507 9.5 24.0978C9.5 23.8741 9.50961 23.6538 9.52964 23.4369Z" fill="#7FC8EE" stroke="black"/>
</svg>
